<svg width="25" height="25" viewBox="0 0 25 25" fill="none" xmlns="http://www.w3.org/2000/svg">
<path d="M12.5 25C19.4037 25 25 19.4036 25 12.5C25 5.59644 19.4037 0 12.5 0C5.59625 0 0 5.59644 0 12.5C0 19.4036 5.59625 25 12.5 25Z" fill="url(#paint0_linear_0_1)"/>
<path d="M6.19464 17.2197C5.90175 17.5126 5.90175 17.9874 6.19464 18.2803C6.48754 18.5732 6.96241 18.5732 7.25531 18.2803L6.19464 17.2197ZM9.34997 15.125L9.8803 14.5947C9.58741 14.3018 9.11254 14.3018 8.81964 14.5947L9.34997 15.125ZM11.45 17.225L10.9196 17.7553C11.2125 18.0482 11.6874 18.0482 11.9803 17.7553L11.45 17.225ZM16.175 12.5L16.7053 11.9697C16.4124 11.6768 15.9375 11.6768 15.6446 11.9697L16.175 12.5ZM19.3196 16.7053C19.6125 16.9982 20.0874 16.9982 20.3803 16.7053C20.6732 16.4124 20.6732 15.9376 20.3803 15.6447L19.3196 16.7053ZM7.25531 18.2803L9.8803 15.6553L8.81964 14.5947L6.19464 17.2197L7.25531 18.2803ZM8.81964 15.6553L10.9196 17.7553L11.9803 16.6947L9.8803 14.5947L8.81964 15.6553ZM11.9803 17.7553L16.7053 13.0303L15.6446 11.9697L10.9196 16.6947L11.9803 17.7553ZM15.6446 13.0303L19.3196 16.7053L20.3803 15.6447L16.7053 11.9697L15.6446 13.0303ZM12.5 20.15C8.275 20.15 4.84998 16.725 4.84998 12.5H3.34998C3.34998 17.5534 7.44657 21.65 12.5 21.65V20.15ZM20.15 12.5C20.15 16.725 16.7249 20.15 12.5 20.15V21.65C17.5534 21.65 21.65 17.5534 21.65 12.5H20.15ZM12.5 4.85001C16.7249 4.85001 20.15 8.27503 20.15 12.5H21.65C21.65 7.4466 17.5534 3.35001 12.5 3.35001V4.85001ZM12.5 3.35001C7.44657 3.35001 3.34998 7.4466 3.34998 12.5H4.84998C4.84998 8.27503 8.275 4.85001 12.5 4.85001V3.35001ZM10.7 9.875C10.7 10.3306 10.3306 10.7 9.87497 10.7V12.2C11.159 12.2 12.2 11.1591 12.2 9.875H10.7ZM9.87497 10.7C9.41934 10.7 9.04997 10.3306 9.04997 9.875H7.54997C7.54997 11.1591 8.59091 12.2 9.87497 12.2V10.7ZM9.04997 9.875C9.04997 9.41937 9.41934 9.05 9.87497 9.05V7.55C8.59091 7.55 7.54997 8.59094 7.54997 9.875H9.04997ZM9.87497 9.05C10.3306 9.05 10.7 9.41937 10.7 9.875H12.2C12.2 8.59094 11.159 7.55 9.87497 7.55V9.05Z" fill="white"/>
<defs>
<linearGradient id="paint0_linear_0_1" x1="0" y1="0" x2="26.1969" y2="23.6758" gradientUnits="userSpaceOnUse">
<stop stop-color="#1AF0E3"/>
<stop offset="1" stop-color="#049DF3"/>
</linearGradient>
</defs>
</svg>
